<?xml version="1.0" encoding="utf-8"?>
<!-- Generator: Adobe Illustrator 18.1.1, SVG Export Plug-In . SVG Version: 6.00 Build 0)  -->
<!DOCTYPE svg PUBLIC "-//W3C//DTD SVG 1.1//EN" "http://www.w3.org/Graphics/SVG/1.1/DTD/svg11.dtd">
<svg version="1.1" id="Layer_2" xmlns="http://www.w3.org/2000/svg" xmlns:xlink="http://www.w3.org/1999/xlink" x="0px" y="0px"
	 viewBox="241.6 0 308.3 612" enable-background="new 241.6 0 308.3 612" xml:space="preserve">
<path fill="#FFFFFF" d="M549.9,218.6H439.7V165c0,0-6.9-49.5,30.2-49.5c41.3,0,73,0,73,0V1.2H417.8c0,0-103.2,0-103.2,103.2
	c0,23.4,0,64.7,0,114.2h-73v90.8h73c0,140.3,0,300,0,300h125.3V310.8h83.9L549.9,218.6z"/>
<path fill="#FFFFFF" d="M2016.6,177.7c-18.4,8.7-35.6,11.9-57.3,15.1c20.5-11.9,35.6-30.2,42.1-54c-18.4,11.9-38.9,18.4-62.6,23.7
	c-18.4-18.4-45.4-30.2-72.3-30.2c-50.8,0-96.1,45.4-96.1,99.3c0,8.7,0,15.1,3.2,20.5c-81-3.2-155.5-42.1-204.1-101.5
	c-8.7,15.1-11.9,30.2-11.9,50.8c0,33.5,18.4,62.6,45.4,81c-15.1,0-30.2-6.5-45.4-11.9l0,0c0,47.5,33.5,87.5,77.7,96.1
	c-8.7,3.2-18.4,3.2-27,3.2c-6.5,0-11.9,0-18.4-3.2c11.9,38.9,47.5,69.1,92.9,69.1c-33.5,27-74.5,42.1-123.1,42.1
	c-8.7,0-15.1,0-23.7,0c45.4,27,96.1,45.4,150.1,45.4c180.3,0,278.6-150.1,278.6-278.6v-11.9C1986.3,217.7,2004.7,199.3,2016.6,177.7
	z"/>
</svg>
