<?xml version="1.0" encoding="utf-8"?>
<!-- Generator: Adobe Illustrator 18.1.1, SVG Export Plug-In . SVG Version: 6.00 Build 0)  -->
<!DOCTYPE svg PUBLIC "-//W3C//DTD SVG 1.1//EN" "http://www.w3.org/Graphics/SVG/1.1/DTD/svg11.dtd">
<svg version="1.1" id="Capa_1" xmlns="http://www.w3.org/2000/svg" xmlns:xlink="http://www.w3.org/1999/xlink" x="0px" y="0px"
	 viewBox="90 0 612 612" enable-background="new 90 0 612 612" xml:space="preserve">
<g>
	<path fill="#0075A2" d="M612.5,89.8C493-29.8,299.3-29.8,179.8,89.5C60.2,209,60.2,402.7,179.5,522.2
		c119.5,119.6,313.2,119.6,432.7,0.3C731.8,403,732,209.3,612.5,89.8z M396,510.3c-112.7,0-204.4-91.7-204.4-204.4
		c0-36.1,9.6-71.5,27.6-102.6l-15.8-18c-2.2-2.6-3.1-6.2-1.9-9.6c1.1-3.3,3.9-5.7,7.4-6.4L316.3,146c3.5-0.7,6.9,0.6,9.2,3.2
		c2.2,2.6,3.1,6.2,1.9,9.6l-31.6,109.8c-1.1,3.3-3.9,5.7-7.4,6.4s-6.9-0.6-9.2-3.2l-15-16.9c-6.2,16.2-9.4,33.4-9.4,50.9
		c0,77.9,63.3,141.1,141.1,141.1s141.1-63.3,141.1-141.1c0-74.2-58-136.1-132-140.9c-5.1-0.3-9.2-4.6-9.2-9.7v-43.7
		c0-2.6,1.1-5.1,3.1-7.1c1.9-1.8,4.6-2.8,7.2-2.6c52.3,2.6,101.2,25,137.5,63c36.5,38.2,56.6,88.3,56.6,141
		C600.4,418.5,508.7,510.3,396,510.3z"/>
</g>
</svg>
