<?xml version="1.0" encoding="utf-8"?>
<!-- Generator: Adobe Illustrator 18.1.1, SVG Export Plug-In . SVG Version: 6.00 Build 0)  -->
<!DOCTYPE svg PUBLIC "-//W3C//DTD SVG 1.1//EN" "http://www.w3.org/Graphics/SVG/1.1/DTD/svg11.dtd">
<svg version="1.1" id="Layer_1" xmlns="http://www.w3.org/2000/svg" xmlns:xlink="http://www.w3.org/1999/xlink" x="0px" y="0px"
	 viewBox="0 0 149.5 32.4" enable-background="new 0 0 149.5 32.4" xml:space="preserve">
<g>
	<path fill="#0075A2" d="M114,14.3h0.6v2.9H114V14.3z"/>
	<path fill="#0075A2" d="M118.8,15.4L118,17h-0.4l-0.8-1.6v1.8h-0.6v-2.9h0.9l0.7,1.6l0.8-1.6h0.9v2.9h-0.6V15.4z"/>
	<path fill="#0075A2" d="M123,14.6c0.2,0.2,0.3,0.4,0.3,0.8s-0.1,0.6-0.3,0.8c-0.2,0.2-0.5,0.2-1,0.2h-0.4v0.8H121v-2.9h1
		C122.5,14.3,122.8,14.4,123,14.6z M122.6,15.7c0.1-0.1,0.1-0.2,0.1-0.4s-0.1-0.3-0.2-0.4c-0.1-0.1-0.3-0.1-0.5-0.1h-0.4v1h0.4
		C122.3,15.8,122.5,15.8,122.6,15.7z"/>
	<path fill="#0075A2" d="M127.1,16.8c-0.3,0.3-0.7,0.4-1.1,0.4c-0.4,0-0.8-0.1-1.1-0.4c-0.3-0.3-0.4-0.6-0.4-1.1
		c0-0.4,0.1-0.8,0.4-1.1c0.3-0.3,0.7-0.4,1.1-0.4c0.4,0,0.8,0.1,1.1,0.4c0.3,0.3,0.4,0.6,0.4,1.1C127.6,16.2,127.4,16.5,127.1,16.8z
		 M126.9,15.7c0-0.3-0.1-0.5-0.2-0.7c-0.2-0.2-0.4-0.3-0.6-0.3c-0.2,0-0.4,0.1-0.6,0.3c-0.2,0.2-0.2,0.4-0.2,0.7
		c0,0.3,0.1,0.5,0.2,0.7c0.2,0.2,0.4,0.3,0.6,0.3c0.2,0,0.4-0.1,0.6-0.3C126.8,16.2,126.9,16,126.9,15.7z"/>
	<path fill="#0075A2" d="M131.3,15.3c0,0.5-0.2,0.8-0.6,0.9l0.7,1h-0.8l-0.6-0.9h-0.4v0.9h-0.6v-2.9h1.1c0.5,0,0.8,0.1,1,0.2
		C131.2,14.7,131.3,14.9,131.3,15.3z M130.5,15.6c0.1-0.1,0.1-0.2,0.1-0.3c0-0.2,0-0.3-0.1-0.3c-0.1-0.1-0.2-0.1-0.4-0.1h-0.5v0.9
		h0.5C130.3,15.7,130.4,15.7,130.5,15.6z"/>
	<path fill="#0075A2" d="M134,14.9v2.3h-0.6v-2.3h-0.8v-0.6h2.3v0.6H134z"/>
	<path fill="#0075A2" d="M138.2,14.3v0.6h-1.4v0.6h1.3V16h-1.3v0.6h1.5v0.6h-2.1v-2.9H138.2z"/>
	<path fill="#0075A2" d="M142,15.3c0,0.5-0.2,0.8-0.6,0.9l0.7,1h-0.8l-0.6-0.9h-0.4v0.9h-0.6v-2.9h1.1c0.5,0,0.8,0.1,1,0.2
		C141.9,14.7,142,14.9,142,15.3z M141.2,15.6c0.1-0.1,0.1-0.2,0.1-0.3c0-0.2,0-0.3-0.1-0.3c-0.1-0.1-0.2-0.1-0.4-0.1h-0.5v0.9h0.5
		C141,15.7,141.2,15.7,141.2,15.6z"/>
</g>
<g>
	<path fill="#212221" d="M149,20.1H107v-8.7H149V20.1z M107.4,19.7h41.2v-7.9h-41.2V19.7z"/>
</g>
<g>
	<path fill="#222222" d="M25.8,7.4l4.7-4.2l-0.3-0.3l-21,19v-4.3h2l0.6-2.2H9.2v-1.3c0,0-0.2-1.2,0.7-1.2c1,0,1.8,0,1.8,0v-2.8H8.7
		c0,0-2.5,0-2.5,2.5c0,0.6,0,1.6,0,2.8H4.4v2.2h1.8c0,2.9,0,6.1,0,7.1l-3.9,3.6l0.3,0.3l13.1-11.9c1,3.1,3.8,5.4,7.3,5.4
		c4.2,0,7.6-3.4,7.6-7.6C30.5,11.3,28.6,8.6,25.8,7.4z M21.6,11.3C21.6,11.3,21.6,11.3,21.6,11.3l1.1,2.9l-1.5,4.4l-1.8-5.3
		L21.6,11.3z M16.4,16l1.5-1.3l2.1,5.8C18.2,19.6,16.8,18,16.4,16z M22.9,21.1c-0.7,0-1.3-0.1-1.9-0.3l2-5.9l2.1,5.7
		c0,0,0,0.1,0,0.1C24.4,21,23.7,21.1,22.9,21.1z M23.8,11.3c0.4,0,0.8-0.1,0.8-0.1c0.4,0,0.3-0.6,0-0.6c0,0-1.1,0.1-1.8,0.1
		c-0.2,0-0.4,0-0.6,0l2.9-2.6c0.9,0.3,1.7,0.8,2.3,1.4c0,0-0.1,0-0.1,0c-0.7,0-1.1,0.6-1.1,1.2c0,0.6,0.3,1,0.7,1.6
		c0.3,0.4,0.6,1,0.6,1.9c0,0.6-0.2,1.2-0.5,2.2l-0.7,2.2L23.8,11.3z M28.8,11.2c0.5,1,0.8,2.1,0.8,3.2c0,2.5-1.3,4.6-3.3,5.8
		l2.1-5.9c0.4-1,0.5-1.7,0.5-2.4C28.9,11.6,28.8,11.4,28.8,11.2z"/>
</g>
<g>
	<path fill="#0075A2" d="M45.6,12.7v1.2h-3v1.3h2.7v1.2h-2.7v1.3h3.1v1.2h-4.5v-6.1H45.6z"/>
	<path fill="#0075A2" d="M54.4,16.6l1.6-3.9h1.5L55,18.8h-1.2l-2.4-6.1h1.5L54.4,16.6z"/>
	<path fill="#0075A2" d="M67.8,12.7v1.2h-3v1.3h2.7v1.2h-2.7v1.3h3.1v1.2h-4.5v-6.1H67.8z"/>
	<path fill="#0075A2" d="M78.6,12.7h1.4v6.1h-1.4L75.7,15v3.8h-1.4v-6.1h1.3l3,3.9V12.7z"/>
	<path fill="#0075A2" d="M89.2,13.9v4.9h-1.4v-4.9h-1.7v-1.2H91v1.2H89.2z"/>
	<path fill="#0075A2" d="M98.6,13.9c-0.1,0.1-0.2,0.2-0.2,0.4s0.1,0.3,0.2,0.4c0.2,0.1,0.5,0.2,1.1,0.4c0.6,0.1,1,0.4,1.3,0.6
		c0.3,0.3,0.5,0.7,0.5,1.2c0,0.5-0.2,1-0.6,1.3c-0.4,0.3-0.9,0.5-1.6,0.5c-1,0-1.8-0.4-2.6-1.1l0.8-1c0.7,0.6,1.3,0.9,1.8,0.9
		c0.2,0,0.4-0.1,0.6-0.2c0.1-0.1,0.2-0.3,0.2-0.4c0-0.2-0.1-0.3-0.2-0.4c-0.2-0.1-0.4-0.2-0.9-0.3c-0.7-0.2-1.2-0.4-1.6-0.7
		c-0.3-0.3-0.5-0.7-0.5-1.3c0-0.6,0.2-1,0.6-1.3c0.4-0.3,0.9-0.5,1.6-0.5c0.4,0,0.8,0.1,1.2,0.2c0.4,0.1,0.8,0.3,1.1,0.6l-0.7,1
		c-0.5-0.4-1.1-0.6-1.6-0.6C98.9,13.7,98.7,13.8,98.6,13.9z"/>
</g>
<g>
	<polygon fill="none" points="78.1,11.1 70.8,20 72,20 79.4,11.1 	"/>
	<polygon fill="none" points="80.9,20 80.9,18.8 79.9,20 	"/>
	<polygon fill="none" points="76.3,11.1 69,20 70.2,20 77.5,11.1 	"/>
	<polygon fill="none" points="62.4,11.1 62.4,20 68.4,20 75.7,11.1 	"/>
	<polygon fill="none" points="79.3,20 80.9,18.1 80.9,16.6 78.1,20 	"/>
	<polygon fill="none" points="72.6,20 73.9,20 80.9,11.5 80.9,11.1 80,11.1 	"/>
	<polygon fill="none" points="77.5,20 80.9,15.9 80.9,14.4 76.3,20 	"/>
	<polygon fill="none" points="75.7,20 80.9,13.7 80.9,12.2 74.5,20 	"/>
	<g>
		<rect x="67.5" y="7.7" fill="#222222" width="8.4" height="0.5"/>
		<rect x="66.4" y="6.8" fill="#222222" width="0.6" height="2.2"/>
		<rect x="76.4" y="6.8" fill="#222222" width="0.6" height="2.2"/>
		<path fill="#222222" d="M77.4,7.6v0.5h3.6v2.6H62.4V8.1H66V7.6h-4v3.5v9.3h0.5h19v-9.3v-0.5v-3H77.4z M62.4,20v-8.9h13.3L68.4,20
			H62.4z M69,20l7.3-8.9h1.2L70.2,20H69z M70.8,20l7.3-8.9h1.2L72,20H70.8z M80.9,20h-1l1-1.2V20z M80.9,18.1L79.3,20h-1.2l2.8-3.4
			V18.1z M80.9,15.9L77.5,20h-1.2l4.6-5.6V15.9z M80.9,13.7L75.7,20h-1.2l6.5-7.8V13.7z M80.9,11.5L73.9,20h-1.2l7.3-8.9h1V11.5z"/>
	</g>
</g>
</svg>
